<svg width="249" height="253" viewBox="0 0 249 253" fill="none" xmlns="http://www.w3.org/2000/svg">
<rect x="0.5" y="0.5" width="248" height="252" rx="5.5" fill="#110014" stroke="white"/>
<g clip-path="url(#clip0_25_4)">
<path d="M52.9979 25.2941H47.8201C47.8224 24.9087 47.8385 24.5416 47.8385 24.1471V23H19.162V24.1471C19.162 24.5141 19.1712 24.911 19.1735 25.2941H14.0025L14.0002 26.4389C13.9933 28.9303 14.1425 31.4836 14.4476 34.0324C15.2551 40.7702 17.3634 48.5794 20.8596 50.2908C21.3047 50.5111 21.7658 50.6212 22.2269 50.6212C22.7729 50.6212 23.3258 50.4652 23.8489 50.1486L24.3283 49.8274C26.2393 52.757 28.8478 54.7345 32.3532 55.0993V59.7059H25.5786V62H41.6375V59.7059H34.6473V55.1245C37.8935 54.7827 40.5776 52.9795 42.6606 49.8205L43.1975 50.1761C43.693 50.4744 44.2229 50.6212 44.7598 50.6212C45.2209 50.6212 45.6866 50.5111 46.1408 50.2885C49.6371 48.5771 51.7453 40.7679 52.5529 34.0301C52.858 31.4836 53.0071 28.928 53.0002 26.4366L52.9979 25.2941ZM23.1492 47.8545L22.6238 48.2078C22.3669 48.3592 22.1558 48.3684 21.8713 48.2307C20.0705 47.3475 17.7236 42.0939 16.7256 33.7571C16.4779 31.6924 16.3379 29.6231 16.3035 27.5882H19.2239C19.4465 34.2962 20.4008 42.4266 23.335 48.1344L23.1492 47.8545ZM33.5002 52.9176C23.0849 52.9176 21.5731 34.4499 21.463 25.2941H45.5375C45.4251 36.1246 43.615 52.9176 33.5002 52.9176ZM50.2748 33.7571C49.2746 42.0939 46.93 47.3475 45.1291 48.2307C44.8469 48.3706 44.6336 48.3638 44.4225 48.2376L43.849 47.8545L43.5829 48.2536C46.0582 43.5782 47.4989 36.6316 47.7834 27.5882H50.6992C50.6625 29.6231 50.5226 31.6924 50.2748 33.7571Z" fill="#B062FF"/>
</g>
<path d="M37.2422 73.5625C35.3516 73.5625 33.5938 73.2969 31.9688 72.7656C30.3438 72.2188 28.9297 71.2656 27.7266 69.9062C26.5234 68.5469 25.5703 66.7266 24.8672 64.4453C24.1797 62.1484 23.8281 59.3203 23.8125 55.9609C23.8125 52.7109 24.1641 49.9844 24.8672 47.7812C25.5703 45.5781 26.5391 43.7969 27.7734 42.4375C29.0234 41.0938 30.4922 40.1328 32.1797 39.5547C33.8672 38.9766 35.7109 38.6875 37.7109 38.6875C38.9766 38.6875 40.1484 38.7656 41.2266 38.9219C42.3203 39.0625 43.2656 39.2188 44.0625 39.3906C44.5312 39.5 44.9766 39.6094 45.3984 39.7188C45.8203 39.8281 46.2188 39.9453 46.5938 40.0703L46.9688 43.7031C46.2188 43.4219 45.3594 43.1641 44.3906 42.9297C43.5938 42.7578 42.6641 42.5938 41.6016 42.4375C40.5391 42.2812 39.4062 42.2031 38.2031 42.2031C36.6875 42.2031 35.3281 42.4375 34.125 42.9062C32.9219 43.375 31.8984 44.1406 31.0547 45.2031C30.2109 46.2656 29.5625 47.6641 29.1094 49.3984C28.6719 51.1172 28.4531 53.2891 28.4531 55.9141C28.4844 60.9297 29.2656 64.5547 30.7969 66.7891C31.5781 67.9297 32.5469 68.7578 33.7031 69.2734C34.8594 69.7891 36.2109 70.0391 37.7578 70.0234C39.0547 70.0391 40.2578 69.9688 41.3672 69.8125C42.4766 69.6406 43.4531 69.4297 44.2969 69.1797C45.2656 68.9141 46.1562 68.6328 46.9688 68.3359L46.5703 71.9922C45.8516 72.2734 44.9844 72.5391 43.9688 72.7891C43.1406 72.9922 42.1562 73.1719 41.0156 73.3281C39.875 73.4844 38.6172 73.5625 37.2422 73.5625ZM53.2266 73V39.3203H72.3516L71.7891 42.7188H57.6562V54.0391H69.1875V57.2969H57.6562V69.6016H72.3047L71.7656 73H53.2266ZM78.6797 73V39.3203H83.0156V69.6719H96.7969L96.3984 73H78.6797ZM101.695 73V39.3203H120.82L120.258 42.7188H106.125V54.0391H117.656V57.2969H106.125V69.6016H120.773L120.234 73H101.695ZM135.398 73.5625C133.086 73.5625 131.203 73.3672 129.75 72.9766C128.297 72.5703 127.133 72.1484 126.258 71.7109L125.648 68.0078C126.664 68.5078 127.945 68.9688 129.492 69.3906C131.055 69.8125 132.883 70.0234 134.977 70.0234C137.367 70.0234 139.227 69.6172 140.555 68.8047C141.883 67.9922 142.547 66.4219 142.547 64.0938C142.547 62.75 142.312 61.6797 141.844 60.8828C141.375 60.0859 140.547 59.3984 139.359 58.8203C138.188 58.2266 136.531 57.5938 134.391 56.9219C132.172 56.2656 130.383 55.5469 129.023 54.7656C127.664 53.9688 126.672 52.9844 126.047 51.8125C125.438 50.625 125.141 49.1172 125.156 47.2891C125.219 45.1328 125.758 43.4297 126.773 42.1797C127.805 40.9141 129.172 40.0156 130.875 39.4844C132.594 38.9375 134.516 38.6641 136.641 38.6641C138.031 38.6641 139.43 38.7891 140.836 39.0391C142.242 39.2734 143.578 39.5938 144.844 40L145.336 43.8438C144.445 43.4844 143.188 43.125 141.562 42.7656C139.938 42.4062 138.281 42.2266 136.594 42.2266C134.438 42.2266 132.695 42.5859 131.367 43.3047C130.039 44.0078 129.375 45.3828 129.375 47.4297C129.406 48.4141 129.625 49.25 130.031 49.9375C130.453 50.6094 131.18 51.2109 132.211 51.7422C133.258 52.2734 134.734 52.8359 136.641 53.4297C138.391 54.0078 139.906 54.5781 141.188 55.1406C142.484 55.6875 143.555 56.3359 144.398 57.0859C145.242 57.8203 145.867 58.7578 146.273 59.8984C146.695 61.0234 146.906 62.4531 146.906 64.1875C146.906 67.0625 146.008 69.3438 144.211 71.0312C142.414 72.7188 139.477 73.5625 135.398 73.5625ZM159.445 73V42.6953H149.789V39.3203H173.555L172.992 42.6953H163.828V73H159.445ZM178.664 73V39.3203H182.953V73H178.664ZM188.367 73L199.523 39.3203H204.234L215.367 73H210.773L208.477 65.3359H195.258L192.938 73H188.367ZM196.031 62.7109H207.68L201.891 43.8672L196.031 62.7109ZM220.57 73V39.3203H224.906V69.6719H238.688L238.289 73H220.57ZM97.2422 136.562C95.3516 136.562 93.5938 136.297 91.9688 135.766C90.3438 135.219 88.9297 134.266 87.7266 132.906C86.5234 131.547 85.5703 129.727 84.8672 127.445C84.1797 125.148 83.8281 122.32 83.8125 118.961C83.8125 115.711 84.1641 112.984 84.8672 110.781C85.5703 108.578 86.5391 106.797 87.7734 105.438C89.0234 104.094 90.4922 103.133 92.1797 102.555C93.8672 101.977 95.7109 101.688 97.7109 101.688C98.9766 101.688 100.148 101.766 101.227 101.922C102.32 102.062 103.266 102.219 104.062 102.391C104.531 102.5 104.977 102.609 105.398 102.719C105.82 102.828 106.219 102.945 106.594 103.07L106.969 106.703C106.219 106.422 105.359 106.164 104.391 105.93C103.594 105.758 102.664 105.594 101.602 105.438C100.539 105.281 99.4062 105.203 98.2031 105.203C96.6875 105.203 95.3281 105.438 94.125 105.906C92.9219 106.375 91.8984 107.141 91.0547 108.203C90.2109 109.266 89.5625 110.664 89.1094 112.398C88.6719 114.117 88.4531 116.289 88.4531 118.914C88.4844 123.93 89.2656 127.555 90.7969 129.789C91.5781 130.93 92.5469 131.758 93.7031 132.273C94.8594 132.789 96.2109 133.039 97.7578 133.023C99.0547 133.039 100.258 132.969 101.367 132.812C102.477 132.641 103.453 132.43 104.297 132.18C105.266 131.914 106.156 131.633 106.969 131.336L106.57 134.992C105.852 135.273 104.984 135.539 103.969 135.789C103.141 135.992 102.156 136.172 101.016 136.328C99.875 136.484 98.6172 136.562 97.2422 136.562ZM125.883 136.562C123.383 136.562 121.164 136.211 119.227 135.508C117.289 134.789 115.773 133.539 114.68 131.758C113.586 129.961 113.039 127.461 113.039 124.258V102.32H117.516V123.977C117.516 127.43 118.18 129.812 119.508 131.125C120.195 131.797 121.062 132.281 122.109 132.578C123.156 132.875 124.406 133.023 125.859 133.023C128.703 133.023 130.789 132.359 132.117 131.031C133.461 129.703 134.133 127.352 134.133 123.977V102.32H138.586V124.281C138.586 127.5 138.031 130 136.922 131.781C135.828 133.562 134.32 134.805 132.398 135.508C130.492 136.211 128.32 136.562 125.883 136.562ZM169.43 112.609C169.43 114.516 169.148 116.102 168.586 117.367C168.023 118.617 167.156 119.633 165.984 120.414C164.797 121.195 163.289 121.758 161.461 122.102C159.633 122.445 157.453 122.617 154.922 122.617H152.695C152.461 122.617 152.219 122.617 151.969 122.617C151.734 122.617 151.484 122.609 151.219 122.594V136H146.883V102.32H154.125C157.156 102.32 159.656 102.492 161.625 102.836C163.594 103.164 165.156 103.727 166.312 104.523C167.469 105.32 168.273 106.375 168.727 107.688C169.195 108.984 169.43 110.625 169.43 112.609ZM155.297 119.195C159 119.195 161.555 118.688 162.961 117.672C163.695 117.141 164.203 116.469 164.484 115.656C164.766 114.828 164.906 113.797 164.906 112.562C164.906 111.094 164.766 109.914 164.484 109.023C164.203 108.133 163.688 107.445 162.938 106.961C162.188 106.461 161.148 106.125 159.82 105.953C158.492 105.781 156.773 105.695 154.664 105.695H151.219V119.195H155.297ZM49.2422 199V165.32H59.3203C61.7891 165.32 63.8984 165.57 65.6484 166.07C67.4141 166.57 68.7656 167.508 69.7031 168.883C70.6406 170.258 71.1094 172.266 71.1094 174.906C71.1094 177.25 70.7031 179.094 69.8906 180.438C69.0781 181.766 68.0312 182.734 66.75 183.344C65.4688 183.953 64.125 184.344 62.7188 184.516L72.1875 197.664V199H67.9453L58.3359 184.938H53.6484V199H49.2422ZM53.6484 181.656H58.8984C60.4609 181.656 61.7656 181.555 62.8125 181.352C63.8594 181.133 64.6953 180.773 65.3203 180.273C65.9609 179.773 66.4062 179.125 66.6562 178.328C66.9219 177.516 67.0547 176.508 67.0547 175.305C67.0547 173.852 66.9141 172.688 66.6328 171.812C66.3672 170.938 65.8906 170.258 65.2031 169.773C64.5312 169.305 63.6172 168.984 62.4609 168.812C61.3047 168.641 59.8672 168.555 58.1484 168.555H53.6484V181.656ZM85.0312 203.711L84.9141 198.25C84.7422 198.25 84.5938 198.242 84.4688 198.227H84.0469C82.9688 198.18 81.9922 198.07 81.1172 197.898C80.2422 197.711 79.5 197.516 78.8906 197.312C78.2188 197.094 77.5859 196.844 76.9922 196.562L76.4062 193.047C76.75 193.203 77.1094 193.359 77.4844 193.516C77.875 193.656 78.2734 193.789 78.6797 193.914C79.3828 194.133 80.1953 194.344 81.1172 194.547C82.0391 194.734 83.0312 194.852 84.0938 194.898H84.4688C84.5781 194.914 84.7031 194.922 84.8438 194.922L84.5625 183.742C84.3594 183.68 84.1641 183.617 83.9766 183.555C83.7891 183.492 83.6016 183.43 83.4141 183.367C80.9141 182.523 79.0547 181.508 77.8359 180.32C76.6172 179.117 76.0078 177.359 76.0078 175.047C76.0078 172.703 76.7734 170.891 78.3047 169.609C79.8359 168.312 81.7969 167.539 84.1875 167.289L84.0703 161.664H86.5781L86.6953 167.219C87.6953 167.25 88.625 167.336 89.4844 167.477C90.3438 167.602 91.0938 167.734 91.7344 167.875C92.1094 167.953 92.4688 168.039 92.8125 168.133C93.1562 168.227 93.4766 168.32 93.7734 168.414L94.2422 171.953C93.5391 171.719 92.8047 171.508 92.0391 171.32C91.3516 171.148 90.5547 170.992 89.6484 170.852C88.7578 170.711 87.7969 170.617 86.7656 170.57L87.0234 180.555C88.8984 181.148 90.4688 181.758 91.7344 182.383C93.0156 183.008 93.9844 183.875 94.6406 184.984C95.2969 186.078 95.625 187.641 95.625 189.672C95.625 192.016 94.9844 193.945 93.7031 195.461C92.4375 196.961 90.3438 197.867 87.4219 198.18L87.5625 203.711H85.0312ZM84.4688 179.734L84.2812 170.734C83.0156 170.922 81.9609 171.375 81.1172 172.094C80.2734 172.797 79.8516 173.828 79.8516 175.188C79.8516 176.328 80.1953 177.227 80.8828 177.883C81.5703 178.539 82.7656 179.156 84.4688 179.734ZM87.3516 194.688C88.6172 194.469 89.625 194.008 90.375 193.305C91.125 192.586 91.5 191.508 91.5 190.07C91.5 188.555 91.1875 187.422 90.5625 186.672C89.9375 185.906 88.7812 185.227 87.0938 184.633L87.3516 194.688ZM104.602 199V171.859L99.8672 174.391L98.5078 171.086L105.516 167.688L108.633 168.32V199H104.602ZM116.18 183.227C116.18 179.805 116.547 176.883 117.281 174.461C118.016 172.023 119.242 170.156 120.961 168.859C122.695 167.562 125.055 166.914 128.039 166.914C131.055 166.914 133.422 167.562 135.141 168.859C136.875 170.156 138.109 172.023 138.844 174.461C139.578 176.883 139.945 179.805 139.945 183.227C139.945 185.789 139.742 188.086 139.336 190.117C138.93 192.148 138.258 193.859 137.32 195.25C136.383 196.641 135.156 197.711 133.641 198.461C132.125 199.195 130.258 199.562 128.039 199.562C125.82 199.562 123.953 199.195 122.438 198.461C120.938 197.711 119.727 196.641 118.805 195.25C117.867 193.859 117.195 192.148 116.789 190.117C116.383 188.086 116.18 185.789 116.18 183.227ZM128.039 196.117C129.586 196.117 130.852 195.812 131.836 195.203C132.82 194.578 133.578 193.703 134.109 192.578C134.656 191.469 135.023 190.125 135.211 188.547C135.398 186.953 135.492 185.172 135.492 183.203C135.492 181.297 135.383 179.547 135.164 177.953C134.961 176.359 134.586 174.992 134.039 173.852C133.477 172.727 132.711 171.844 131.742 171.203C130.773 170.562 129.539 170.242 128.039 170.242C126.539 170.242 125.305 170.562 124.336 171.203C123.383 171.828 122.633 172.703 122.086 173.828C121.523 174.969 121.141 176.336 120.938 177.93C120.734 179.523 120.633 181.281 120.633 183.203C120.633 185.172 120.734 186.953 120.938 188.547C121.156 190.125 121.547 191.469 122.109 192.578C122.656 193.703 123.406 194.578 124.359 195.203C125.328 195.812 126.555 196.117 128.039 196.117ZM146.18 183.227C146.18 179.805 146.547 176.883 147.281 174.461C148.016 172.023 149.242 170.156 150.961 168.859C152.695 167.562 155.055 166.914 158.039 166.914C161.055 166.914 163.422 167.562 165.141 168.859C166.875 170.156 168.109 172.023 168.844 174.461C169.578 176.883 169.945 179.805 169.945 183.227C169.945 185.789 169.742 188.086 169.336 190.117C168.93 192.148 168.258 193.859 167.32 195.25C166.383 196.641 165.156 197.711 163.641 198.461C162.125 199.195 160.258 199.562 158.039 199.562C155.82 199.562 153.953 199.195 152.438 198.461C150.938 197.711 149.727 196.641 148.805 195.25C147.867 193.859 147.195 192.148 146.789 190.117C146.383 188.086 146.18 185.789 146.18 183.227ZM158.039 196.117C159.586 196.117 160.852 195.812 161.836 195.203C162.82 194.578 163.578 193.703 164.109 192.578C164.656 191.469 165.023 190.125 165.211 188.547C165.398 186.953 165.492 185.172 165.492 183.203C165.492 181.297 165.383 179.547 165.164 177.953C164.961 176.359 164.586 174.992 164.039 173.852C163.477 172.727 162.711 171.844 161.742 171.203C160.773 170.562 159.539 170.242 158.039 170.242C156.539 170.242 155.305 170.562 154.336 171.203C153.383 171.828 152.633 172.703 152.086 173.828C151.523 174.969 151.141 176.336 150.938 177.93C150.734 179.523 150.633 181.281 150.633 183.203C150.633 185.172 150.734 186.953 150.938 188.547C151.156 190.125 151.547 191.469 152.109 192.578C152.656 193.703 153.406 194.578 154.359 195.203C155.328 195.812 156.555 196.117 158.039 196.117ZM176.18 183.227C176.18 179.805 176.547 176.883 177.281 174.461C178.016 172.023 179.242 170.156 180.961 168.859C182.695 167.562 185.055 166.914 188.039 166.914C191.055 166.914 193.422 167.562 195.141 168.859C196.875 170.156 198.109 172.023 198.844 174.461C199.578 176.883 199.945 179.805 199.945 183.227C199.945 185.789 199.742 188.086 199.336 190.117C198.93 192.148 198.258 193.859 197.32 195.25C196.383 196.641 195.156 197.711 193.641 198.461C192.125 199.195 190.258 199.562 188.039 199.562C185.82 199.562 183.953 199.195 182.438 198.461C180.938 197.711 179.727 196.641 178.805 195.25C177.867 193.859 177.195 192.148 176.789 190.117C176.383 188.086 176.18 185.789 176.18 183.227ZM188.039 196.117C189.586 196.117 190.852 195.812 191.836 195.203C192.82 194.578 193.578 193.703 194.109 192.578C194.656 191.469 195.023 190.125 195.211 188.547C195.398 186.953 195.492 185.172 195.492 183.203C195.492 181.297 195.383 179.547 195.164 177.953C194.961 176.359 194.586 174.992 194.039 173.852C193.477 172.727 192.711 171.844 191.742 171.203C190.773 170.562 189.539 170.242 188.039 170.242C186.539 170.242 185.305 170.562 184.336 171.203C183.383 171.828 182.633 172.703 182.086 173.828C181.523 174.969 181.141 176.336 180.938 177.93C180.734 179.523 180.633 181.281 180.633 183.203C180.633 185.172 180.734 186.953 180.938 188.547C181.156 190.125 181.547 191.469 182.109 192.578C182.656 193.703 183.406 194.578 184.359 195.203C185.328 195.812 186.555 196.117 188.039 196.117Z" fill="white"/>
<defs>
<clipPath id="clip0_25_4">
<rect width="39" height="39" fill="white" transform="translate(14 23)"/>
</clipPath>
</defs>
</svg>
