<svg width="439" height="59" viewBox="0 0 439 59" fill="none" xmlns="http://www.w3.org/2000/svg">
<path d="M47.3718 6.10352e-05H54.6282L59.8309 0.541917L63.3906 1.21924L67.2242 2.16748L72.153 3.79305L76.2604 5.55408L79.6832 7.31511L82.4215 8.94068L84.6121 10.4308L86.6658 11.9209L88.5825 13.411L89.9517 14.6302L91.047 15.5784L92.0054 16.5267L93.1007 17.4749L94.0591 18.5586L95.0174 19.5069L96.2497 20.997L97.6188 22.6225L99.5356 25.1964L101.315 27.9056L102 28.9893L101.863 29.5312L99.9463 32.5114L98.1664 34.9498L96.3866 37.1172L94.8805 38.8782L92.8268 41.0456L91.3208 42.5357L90.2255 43.484L88.1718 45.245L86.3919 46.5997L83.9275 48.3607L80.6416 50.3926L77.6295 52.0182L74.4805 53.5083L70.647 54.9984L66.8134 56.2176L62.1584 57.3013L58.7356 57.8432L54.7651 58.2495L52.0268 58.385H49.9732L45.7289 58.1141L41.4846 57.5722L37.2403 56.7594L33.8174 55.8112L30.9423 54.8629L27.2456 53.3728L23.8228 51.7473L20.9477 50.1217L18.757 48.7671L16.5664 47.277L14.7866 45.9223L13.2805 44.7032L11.9114 43.484L10.8161 42.5357L9.03624 40.9102L7.39329 39.1491L6.02416 37.659L4.51812 35.7625L3.14899 34.0015L0.958389 30.7504L0 29.2603L0.273825 28.5829L3.01208 24.519L4.2443 22.8935L6.02416 20.726L7.39329 19.2359L8.35168 18.1522L11.2268 15.3075L12.3221 14.3592L14.2389 12.7337L16.4295 11.1081L18.757 9.48254L21.6322 7.7215L25.1919 5.82501L28.4779 4.33491L32.1745 2.98027L35.7342 1.89656L39.157 1.08377L43.2644 0.406453L47.3718 6.10352e-05Z" fill="#7A008D"/>
<path d="M48.8778 6.36689H53.1221L55.8604 6.77328L58.4617 7.4506L61.0631 8.53431L63.1168 9.61802L65.4443 11.2436L67.2242 12.8692L68.4564 14.0883L70.2362 16.3912L71.6054 18.6941L72.0161 19.5069L72.2899 19.7778L77.9034 20.8615L82.0107 21.9452L85.1597 23.029L87.2134 23.9772L89.404 25.1964L91.1839 26.8219L91.8685 28.0411L92.0054 28.583V29.8021L91.4577 31.0213L90.6362 32.105L88.9933 33.3242L86.8027 34.5434L84.0644 35.6271L80.094 36.8463L75.9866 37.7945L71.1946 38.6073L65.7181 39.2846L60.7893 39.691L54.902 39.9619H46.8242L40.9369 39.691L36.0081 39.2846L31.4899 38.7428L26.698 37.93L21.3584 36.7108L16.4295 35.0852L14.102 34.0015L12.0483 32.6469L10.8161 31.4277L9.99463 29.8021V28.583L10.5423 27.2283L11.9114 25.7382L13.2805 24.79L16.1557 23.2999L19.5785 22.0807L23.549 20.997L29.7101 19.7778L30.1208 19.3714L31.353 17.0685L32.7221 15.172L34.3651 13.2756L35.7342 11.9209L38.0617 10.1599L40.1154 8.9407L42.443 7.85699L44.9074 7.04421L47.6456 6.50235L48.8778 6.36689Z" fill="white"/>
<path d="M70.6469 40.2328H71.1946L70.9208 40.7747L69.5516 42.8067L68.3194 44.2968L65.9919 46.5997L64.212 47.9543L62.1584 49.1735L59.557 50.3926L57.0926 51.2054L54.3543 51.7473L53.3959 51.8827H48.4671L45.3181 51.3409L42.0322 50.2572L39.2939 48.9025L37.651 47.8188L35.7342 46.3287L33.2698 43.8904L32.5852 42.9421V42.8067L35.4604 42.9421H46.8241L53.6698 42.5357L60.2416 41.8584L66.9503 40.9102L70.6469 40.2328Z" fill="#FBF7F1"/>
<path d="M50.3839 19.9132H51.89L53.8067 20.3196L55.4497 20.9969L56.9557 22.0806L57.9141 22.8934L59.1463 24.6545L59.694 25.7382L60.1047 26.9573L60.2416 27.7701V30.6149L59.8309 32.2404L59.2833 33.0532L58.5987 33.3242L56.4081 33.4596H45.0443L43.1276 33.3242L42.5799 33.0532L42.0322 31.6986L41.7584 30.4794V28.0411L42.0322 26.551L42.8537 24.6545L43.949 23.1644L45.3182 21.8097L47.2349 20.726L48.741 20.1842L50.3839 19.9132Z" fill="#7A008D"/>
<path d="M72.7007 21.2679L73.9329 21.5388L76.3973 22.4871L78.3141 23.5708L79.4094 24.519L79.9571 25.6028V26.6865L79.2725 27.7702L78.1772 28.7184L75.5759 30.0731L74.4805 30.4795H73.9329V27.3638L73.5222 24.519L72.7007 21.5388V21.2679Z" fill="#7A008D"/>
<path d="M28.8886 21.2679H29.2993L29.0255 22.4871L28.341 25.4673L28.0671 27.9056L27.9302 30.6149L25.055 29.3958L23.549 28.4475L22.4537 27.3638L22.043 26.551L22.1799 25.3318L22.7275 24.3836L24.3705 23.1644L26.5611 22.0807L28.8886 21.2679Z" fill="#7A008D"/>
<path d="M136.344 42.3201C134.595 42.3201 132.984 42.0321 131.512 41.4561C130.04 40.8801 128.76 40.0801 127.672 39.0561C126.605 38.0107 125.773 36.7841 125.176 35.3761C124.6 33.9467 124.312 32.3787 124.312 30.6721C124.312 28.9867 124.611 27.4401 125.208 26.0321C125.827 24.6027 126.68 23.3654 127.768 22.3201C128.856 21.2747 130.147 20.4641 131.64 19.8881C133.133 19.3121 134.765 19.0241 136.536 19.0241C137.603 19.0241 138.637 19.1627 139.64 19.4401C140.664 19.6961 141.624 20.0801 142.52 20.5921C143.416 21.1041 144.216 21.7441 144.92 22.5121L141.112 26.9281C140.749 26.5227 140.344 26.1601 139.896 25.8401C139.448 25.5201 138.936 25.2747 138.36 25.1041C137.805 24.9121 137.187 24.8161 136.504 24.8161C135.715 24.8161 134.968 24.9547 134.264 25.2321C133.581 25.4881 132.984 25.8721 132.472 26.3841C131.96 26.8961 131.555 27.5147 131.256 28.2401C130.979 28.9654 130.84 29.7974 130.84 30.7361C130.84 31.6321 130.979 32.4427 131.256 33.1681C131.555 33.8721 131.971 34.4801 132.504 34.9921C133.059 35.4827 133.709 35.8667 134.456 36.1441C135.224 36.4214 136.077 36.5601 137.016 36.5601C137.677 36.5601 138.296 36.4641 138.872 36.2721C139.469 36.0801 140.013 35.8241 140.504 35.5041C140.995 35.1841 141.432 34.8321 141.816 34.4481L144.824 39.2161C144.291 39.8134 143.565 40.3467 142.648 40.8161C141.752 41.2854 140.749 41.6587 139.64 41.9361C138.552 42.1921 137.453 42.3201 136.344 42.3201ZM148.094 42.0001V19.6001H164.382V24.8161H154.174V36.7841H164.862V42.0001H148.094ZM151.102 33.1041V28.1761H163.102V33.1041H151.102ZM169.187 42.0001V19.6001H175.523V36.5281H185.283V42.0001H169.187ZM188.812 42.0001V19.6001H205.1V24.8161H194.892V36.7841H205.58V42.0001H188.812ZM191.82 33.1041V28.1761H203.82V33.1041H191.82ZM217.586 42.3201C215.986 42.3201 214.557 42.1387 213.298 41.7761C212.061 41.4134 210.962 40.8907 210.002 40.2081C209.063 39.5254 208.221 38.7254 207.474 37.8081L211.186 33.6161C212.253 35.0027 213.351 35.9307 214.482 36.4001C215.613 36.8481 216.711 37.0721 217.778 37.0721C218.247 37.0721 218.674 37.0294 219.058 36.9441C219.442 36.8374 219.73 36.6774 219.922 36.4641C220.135 36.2294 220.242 35.9414 220.242 35.6001C220.242 35.3014 220.157 35.0454 219.986 34.8321C219.815 34.6187 219.581 34.4374 219.282 34.2881C218.983 34.1174 218.653 33.9681 218.29 33.8401C217.927 33.7121 217.565 33.6161 217.202 33.5521C216.839 33.4667 216.487 33.3814 216.146 33.2961C214.887 33.0187 213.789 32.6667 212.85 32.2401C211.911 31.8134 211.122 31.3121 210.482 30.7361C209.863 30.1387 209.394 29.4561 209.074 28.6881C208.775 27.9201 208.626 27.0561 208.626 26.0961C208.626 25.0507 208.871 24.0907 209.362 23.2161C209.853 22.3414 210.503 21.5947 211.314 20.9761C212.125 20.3361 213.053 19.8561 214.098 19.5361C215.165 19.1947 216.274 19.0241 217.426 19.0241C219.005 19.0241 220.349 19.1841 221.458 19.5041C222.567 19.8027 223.495 20.2401 224.242 20.8161C225.01 21.3921 225.671 22.0641 226.226 22.8321L222.45 26.4801C222.002 25.9894 221.511 25.5841 220.978 25.2641C220.466 24.9441 219.933 24.7094 219.378 24.5601C218.823 24.3894 218.258 24.3041 217.682 24.3041C217.149 24.3041 216.679 24.3574 216.274 24.4641C215.89 24.5707 215.591 24.7307 215.378 24.9441C215.165 25.1361 215.058 25.4027 215.058 25.7441C215.058 26.0427 215.175 26.3094 215.41 26.5441C215.645 26.7574 215.943 26.9387 216.306 27.0881C216.669 27.2374 217.053 27.3654 217.458 27.4721C217.885 27.5574 218.269 27.6321 218.61 27.6961C219.783 27.9307 220.85 28.2401 221.81 28.6241C222.791 28.9867 223.645 29.4561 224.37 30.0321C225.095 30.5867 225.65 31.2694 226.034 32.0801C226.418 32.8907 226.61 33.8401 226.61 34.9281C226.61 36.5281 226.205 37.8827 225.394 38.9921C224.605 40.0801 223.527 40.9121 222.162 41.4881C220.818 42.0427 219.293 42.3201 217.586 42.3201ZM235.432 42.0001V25.0721H228.648V19.6001H248.776V25.0721H241.768V42.0001H235.432ZM252.149 42.0001V36.8161H256.053V24.7841H252.149V19.6001H266.261V24.7841H262.389V36.8161H266.261V42.0001H252.149ZM268.272 42.0001L277.2 19.6001H282.32L291.184 42.0001H284.88L281.04 31.6001C280.827 31.0241 280.635 30.4907 280.464 30.0001C280.294 29.5094 280.134 29.0294 279.984 28.5601C279.835 28.0907 279.686 27.6107 279.536 27.1201C279.408 26.6294 279.291 26.0961 279.184 25.5201L280.208 25.4881C280.08 26.1067 279.942 26.6614 279.792 27.1521C279.664 27.6427 279.526 28.1121 279.376 28.5601C279.227 29.0081 279.056 29.4774 278.864 29.9681C278.694 30.4587 278.502 31.0027 278.288 31.6001L274.448 42.0001H268.272ZM272.624 38.2881L274.512 33.8081H284.88L286.64 38.2881H272.624ZM293.469 42.0001V19.6001H299.805V36.5281H309.565V42.0001H293.469Z" fill="white"/>
<path d="M323.014 42.3201C321.414 42.3201 319.942 42.0427 318.598 41.4881C317.254 40.9121 316.091 40.1121 315.11 39.0881C314.128 38.0427 313.36 36.8161 312.806 35.4081C312.272 34.0001 312.006 32.4641 312.006 30.8001C312.006 29.1574 312.272 27.6534 312.806 26.2881C313.36 24.9014 314.139 23.6961 315.141 22.6721C316.144 21.6267 317.307 20.8267 318.63 20.2721C319.952 19.7174 321.403 19.4401 322.982 19.4401C324.027 19.4401 325.062 19.6107 326.086 19.9521C327.11 20.2721 328.048 20.7201 328.902 21.2961C329.776 21.8721 330.491 22.5334 331.046 23.2801L329.318 25.0721C328.784 24.4321 328.166 23.8774 327.462 23.4081C326.779 22.9387 326.054 22.5761 325.286 22.3201C324.518 22.0641 323.75 21.9361 322.982 21.9361C321.787 21.9361 320.667 22.1601 319.622 22.6081C318.598 23.0347 317.712 23.6427 316.966 24.4321C316.219 25.2214 315.632 26.1601 315.206 27.2481C314.8 28.3361 314.598 29.5201 314.598 30.8001C314.598 32.1227 314.8 33.3387 315.206 34.4481C315.632 35.5574 316.23 36.5174 316.998 37.3281C317.787 38.1174 318.704 38.7361 319.75 39.1841C320.816 39.6107 322 39.8241 323.302 39.8241C324.07 39.8241 324.838 39.7174 325.606 39.5041C326.374 39.2694 327.078 38.9494 327.718 38.5441C328.358 38.1387 328.902 37.6801 329.35 37.1681L330.63 39.2481C330.139 39.8454 329.478 40.3787 328.646 40.8481C327.835 41.2961 326.939 41.6587 325.958 41.9361C324.976 42.1921 323.995 42.3201 323.014 42.3201ZM335.359 42.0001V19.6001H337.855V39.5681H348.607V42.0001H335.359ZM352.428 42.0001V39.6321H356.044V21.9681H352.428V19.6001H362.156V21.9681H358.54V39.6321H362.156V42.0001H352.428ZM367.702 42.0001V19.6001H381.27V22.0321H370.198V39.5681H381.206V42.0001H367.702ZM368.854 31.6961V29.2641H379.478V31.6961H368.854ZM386.859 42.0001V19.6001H389.131L403.787 38.9921L403.339 39.5681C403.275 39.2267 403.221 38.7147 403.179 38.0321C403.157 37.3494 403.125 36.5814 403.083 35.7281C403.061 34.8534 403.04 33.9467 403.019 33.0081C402.997 32.0694 402.976 31.1521 402.955 30.2561C402.955 29.3601 402.955 28.5494 402.955 27.8241V19.6001H405.451V42.0001H403.115L388.523 22.8641L388.907 22.1921C388.971 23.0454 389.024 23.8881 389.067 24.7201C389.131 25.5521 389.173 26.3521 389.195 27.1201C389.237 27.8881 389.269 28.5921 389.291 29.2321C389.312 29.8721 389.323 30.4161 389.323 30.8641C389.344 31.3121 389.355 31.6321 389.355 31.8241V42.0001H386.859ZM416.11 42.0001V22.0321H409.71V19.6001H425.262V22.0321H418.606V42.0001H416.11Z" fill="#C8C8C8"/>
<path d="M428.359 42.1407V38.8438H431.328V42.1407H428.359Z" fill="#7A008D"/>
</svg>
