<svg width="249" height="253" viewBox="0 0 249 253" fill="none" xmlns="http://www.w3.org/2000/svg">
<rect x="0.5" y="0.5" width="248" height="252" rx="5.5" fill="#110014" stroke="white"/>
<path d="M49.5156 53.6115H44.8021C44.2564 46.0737 38.2759 40.0933 30.7875 39.5506L30.7379 39.5477V34.8343C30.7379 34.2476 30.2617 33.7714 29.675 33.7714C29.0883 33.7714 28.6121 34.2476 28.6121 34.8343V39.5477C21.0741 40.0933 15.0936 46.0737 14.5508 53.5619L14.5479 53.6115H9.83437C9.24766 53.6115 8.77148 54.0877 8.77148 54.6744C8.77148 55.2611 9.24766 55.7373 9.83437 55.7373H14.5479C15.0936 63.2751 21.0741 69.2555 28.5625 69.7982L28.6121 69.8011V74.5145C28.6121 75.1012 29.0883 75.5774 29.675 75.5774C30.2617 75.5774 30.7379 75.1012 30.7379 74.5145V69.8011C38.2759 69.2555 44.2564 63.2751 44.7992 55.7869L44.8021 55.7373H49.5156C50.1023 55.7373 50.5785 55.2611 50.5785 54.6744C50.5785 54.0877 50.1023 53.6115 49.5156 53.6115ZM30.7379 67.6754V63.1773C30.7379 62.5906 30.2617 62.1144 29.675 62.1144C29.0883 62.1144 28.6121 62.5906 28.6121 63.1773V67.6754C22.2461 67.1397 17.2094 62.1031 16.6766 55.7854L16.6737 55.7373H21.1719C21.7586 55.7373 22.2348 55.2611 22.2348 54.6744C22.2348 54.0877 21.7586 53.6115 21.1719 53.6115H16.6737C17.2094 47.2457 22.2461 42.2091 28.5639 41.6763L28.6121 41.6735V46.1715C28.6121 46.7582 29.0883 47.2344 29.675 47.2344C30.2617 47.2344 30.7379 46.7582 30.7379 46.1715V41.6735C37.1039 42.2091 42.1406 47.2457 42.6734 53.5634L42.6763 53.6115H38.1781C37.5914 53.6115 37.1152 54.0877 37.1152 54.6744C37.1152 55.2611 37.5914 55.7373 38.1781 55.7373H42.6763C42.1392 62.1031 37.1039 67.1382 30.7861 67.6725L30.7379 67.6754Z" fill="#B062FF"/>
<path d="M29.2422 90V56.3203H48.7891L48.2266 59.7188H33.5781V70.7812H46.5859V74.25H33.5781V90H29.2422ZM77.1953 66.6094C77.1953 68.5156 76.9141 70.1016 76.3516 71.3672C75.7891 72.6172 74.9219 73.6328 73.75 74.4141C72.5625 75.1953 71.0547 75.7578 69.2266 76.1016C67.3984 76.4453 65.2188 76.6172 62.6875 76.6172H60.4609C60.2266 76.6172 59.9844 76.6172 59.7344 76.6172C59.5 76.6172 59.25 76.6094 58.9844 76.5938V90H54.6484V56.3203H61.8906C64.9219 56.3203 67.4219 56.4922 69.3906 56.8359C71.3594 57.1641 72.9219 57.7266 74.0781 58.5234C75.2344 59.3203 76.0391 60.375 76.4922 61.6875C76.9609 62.9844 77.1953 64.625 77.1953 66.6094ZM63.0625 73.1953C66.7656 73.1953 69.3203 72.6875 70.7266 71.6719C71.4609 71.1406 71.9688 70.4688 72.25 69.6562C72.5312 68.8281 72.6719 67.7969 72.6719 66.5625C72.6719 65.0938 72.5312 63.9141 72.25 63.0234C71.9688 62.1328 71.4531 61.4453 70.7031 60.9609C69.9531 60.4609 68.9141 60.125 67.5859 59.9531C66.2578 59.7812 64.5391 59.6953 62.4297 59.6953H58.9844V73.1953H63.0625ZM91.5391 90.5625C89.2266 90.5625 87.3438 90.3672 85.8906 89.9766C84.4375 89.5703 83.2734 89.1484 82.3984 88.7109L81.7891 85.0078C82.8047 85.5078 84.0859 85.9688 85.6328 86.3906C87.1953 86.8125 89.0234 87.0234 91.1172 87.0234C93.5078 87.0234 95.3672 86.6172 96.6953 85.8047C98.0234 84.9922 98.6875 83.4219 98.6875 81.0938C98.6875 79.75 98.4531 78.6797 97.9844 77.8828C97.5156 77.0859 96.6875 76.3984 95.5 75.8203C94.3281 75.2266 92.6719 74.5938 90.5312 73.9219C88.3125 73.2656 86.5234 72.5469 85.1641 71.7656C83.8047 70.9688 82.8125 69.9844 82.1875 68.8125C81.5781 67.625 81.2812 66.1172 81.2969 64.2891C81.3594 62.1328 81.8984 60.4297 82.9141 59.1797C83.9453 57.9141 85.3125 57.0156 87.0156 56.4844C88.7344 55.9375 90.6562 55.6641 92.7812 55.6641C94.1719 55.6641 95.5703 55.7891 96.9766 56.0391C98.3828 56.2734 99.7188 56.5938 100.984 57L101.477 60.8438C100.586 60.4844 99.3281 60.125 97.7031 59.7656C96.0781 59.4062 94.4219 59.2266 92.7344 59.2266C90.5781 59.2266 88.8359 59.5859 87.5078 60.3047C86.1797 61.0078 85.5156 62.3828 85.5156 64.4297C85.5469 65.4141 85.7656 66.25 86.1719 66.9375C86.5938 67.6094 87.3203 68.2109 88.3516 68.7422C89.3984 69.2734 90.875 69.8359 92.7812 70.4297C94.5312 71.0078 96.0469 71.5781 97.3281 72.1406C98.625 72.6875 99.6953 73.3359 100.539 74.0859C101.383 74.8203 102.008 75.7578 102.414 76.8984C102.836 78.0234 103.047 79.4531 103.047 81.1875C103.047 84.0625 102.148 86.3438 100.352 88.0312C98.5547 89.7188 95.6172 90.5625 91.5391 90.5625ZM29.2422 153V119.32H38.5C42.8281 119.32 45.8984 120 47.7109 121.359C49.4922 122.688 50.3828 124.953 50.3828 128.156C50.3828 129.344 50.1562 130.359 49.7031 131.203C49.2656 132.047 48.7188 132.75 48.0625 133.312C47.375 133.906 46.6797 134.312 45.9766 134.531C45.2891 134.75 44.7578 134.875 44.3828 134.906C45.8516 135.031 47.1172 135.398 48.1797 136.008C48.6484 136.273 49.1172 136.609 49.5859 137.016C50.0547 137.422 50.4609 137.906 50.8047 138.469C51.1641 139.047 51.4453 139.727 51.6484 140.508C51.8672 141.289 51.9766 142.211 51.9766 143.273C51.9766 146.633 51 149.094 49.0469 150.656C47.1094 152.219 44.1875 153 40.2812 153H29.2422ZM33.4844 133.664H38.9453C40.2891 133.664 41.4219 133.539 42.3438 133.289C43.2656 133.023 44.0078 132.656 44.5703 132.188C45.6328 131.297 46.1641 129.891 46.1641 127.969C46.1641 126.875 46.0078 126.008 45.6953 125.367C45.3984 124.711 44.9219 124.188 44.2656 123.797C42.9844 123.078 40.8672 122.719 37.9141 122.719H33.4844V133.664ZM33.4844 149.625H39.1562C40.5781 149.625 41.8281 149.539 42.9062 149.367C44 149.18 44.9062 148.867 45.625 148.43C46.3438 147.977 46.8828 147.344 47.2422 146.531C47.6172 145.703 47.8047 144.602 47.8047 143.227C47.8047 141.914 47.6328 140.844 47.2891 140.016C46.9453 139.172 46.4141 138.5 45.6953 138C44.9766 137.5 44.0703 137.148 42.9766 136.945C41.8828 136.742 40.5859 136.641 39.0859 136.641H33.4844V149.625ZM57.1562 136.078C57.1562 130.203 58.3125 125.836 60.625 122.977C62.9375 120.117 66.2969 118.688 70.7031 118.688C75.1406 118.688 78.5156 120.117 80.8281 122.977C83.1562 125.836 84.3203 130.203 84.3203 136.078C84.3203 142.016 83.1562 146.414 80.8281 149.273C78.5156 152.133 75.1406 153.562 70.7031 153.562C66.2969 153.562 62.9375 152.133 60.625 149.273C58.3125 146.398 57.1562 142 57.1562 136.078ZM61.6328 136.078C61.6328 138.281 61.7969 140.242 62.125 141.961C62.4688 143.68 63.0078 145.141 63.7422 146.344C64.4766 147.531 65.4141 148.445 66.5547 149.086C67.6953 149.711 69.0781 150.023 70.7031 150.023C72.3438 150.023 73.7344 149.711 74.875 149.086C76.0312 148.445 76.9766 147.531 77.7109 146.344C78.4453 145.141 78.9766 143.68 79.3047 141.961C79.6484 140.242 79.8203 138.281 79.8203 136.078C79.8203 133.891 79.6484 131.938 79.3047 130.219C78.9766 128.5 78.4453 127.047 77.7109 125.859C76.9766 124.672 76.0312 123.766 74.875 123.141C73.7344 122.516 72.3438 122.203 70.7031 122.203C69.0938 122.203 67.7188 122.516 66.5781 123.141C65.4375 123.766 64.5 124.672 63.7656 125.859C63.0469 127.047 62.5078 128.5 62.1484 130.219C61.8047 131.938 61.6328 133.891 61.6328 136.078ZM89.9688 136.078C89.9688 130.203 91.125 125.836 93.4375 122.977C95.75 120.117 99.1094 118.688 103.516 118.688C107.953 118.688 111.328 120.117 113.641 122.977C115.969 125.836 117.133 130.203 117.133 136.078C117.133 142.016 115.969 146.414 113.641 149.273C111.328 152.133 107.953 153.562 103.516 153.562C99.1094 153.562 95.75 152.133 93.4375 149.273C91.125 146.398 89.9688 142 89.9688 136.078ZM94.4453 136.078C94.4453 138.281 94.6094 140.242 94.9375 141.961C95.2812 143.68 95.8203 145.141 96.5547 146.344C97.2891 147.531 98.2266 148.445 99.3672 149.086C100.508 149.711 101.891 150.023 103.516 150.023C105.156 150.023 106.547 149.711 107.688 149.086C108.844 148.445 109.789 147.531 110.523 146.344C111.258 145.141 111.789 143.68 112.117 141.961C112.461 140.242 112.633 138.281 112.633 136.078C112.633 133.891 112.461 131.938 112.117 130.219C111.789 128.5 111.258 127.047 110.523 125.859C109.789 124.672 108.844 123.766 107.688 123.141C106.547 122.516 105.156 122.203 103.516 122.203C101.906 122.203 100.531 122.516 99.3906 123.141C98.25 123.766 97.3125 124.672 96.5781 125.859C95.8594 127.047 95.3203 128.5 94.9609 130.219C94.6172 131.938 94.4453 133.891 94.4453 136.078ZM132.461 153.562C130.148 153.562 128.266 153.367 126.812 152.977C125.359 152.57 124.195 152.148 123.32 151.711L122.711 148.008C123.727 148.508 125.008 148.969 126.555 149.391C128.117 149.812 129.945 150.023 132.039 150.023C134.43 150.023 136.289 149.617 137.617 148.805C138.945 147.992 139.609 146.422 139.609 144.094C139.609 142.75 139.375 141.68 138.906 140.883C138.438 140.086 137.609 139.398 136.422 138.82C135.25 138.227 133.594 137.594 131.453 136.922C129.234 136.266 127.445 135.547 126.086 134.766C124.727 133.969 123.734 132.984 123.109 131.812C122.5 130.625 122.203 129.117 122.219 127.289C122.281 125.133 122.82 123.43 123.836 122.18C124.867 120.914 126.234 120.016 127.938 119.484C129.656 118.938 131.578 118.664 133.703 118.664C135.094 118.664 136.492 118.789 137.898 119.039C139.305 119.273 140.641 119.594 141.906 120L142.398 123.844C141.508 123.484 140.25 123.125 138.625 122.766C137 122.406 135.344 122.227 133.656 122.227C131.5 122.227 129.758 122.586 128.43 123.305C127.102 124.008 126.438 125.383 126.438 127.43C126.469 128.414 126.688 129.25 127.094 129.938C127.516 130.609 128.242 131.211 129.273 131.742C130.32 132.273 131.797 132.836 133.703 133.43C135.453 134.008 136.969 134.578 138.25 135.141C139.547 135.688 140.617 136.336 141.461 137.086C142.305 137.82 142.93 138.758 143.336 139.898C143.758 141.023 143.969 142.453 143.969 144.188C143.969 147.062 143.07 149.344 141.273 151.031C139.477 152.719 136.539 153.562 132.461 153.562ZM156.508 153V122.695H146.852V119.32H170.617L170.055 122.695H160.891V153H156.508ZM175.539 153V119.32H194.664L194.102 122.719H179.969V134.039H191.5V137.297H179.969V149.602H194.617L194.078 153H175.539ZM200.992 153V119.32H211.07C213.539 119.32 215.648 119.57 217.398 120.07C219.164 120.57 220.516 121.508 221.453 122.883C222.391 124.258 222.859 126.266 222.859 128.906C222.859 131.25 222.453 133.094 221.641 134.438C220.828 135.766 219.781 136.734 218.5 137.344C217.219 137.953 215.875 138.344 214.469 138.516L223.938 151.664V153H219.695L210.086 138.938H205.398V153H200.992ZM205.398 135.656H210.648C212.211 135.656 213.516 135.555 214.562 135.352C215.609 135.133 216.445 134.773 217.07 134.273C217.711 133.773 218.156 133.125 218.406 132.328C218.672 131.516 218.805 130.508 218.805 129.305C218.805 127.852 218.664 126.688 218.383 125.812C218.117 124.938 217.641 124.258 216.953 123.773C216.281 123.305 215.367 122.984 214.211 122.812C213.055 122.641 211.617 122.555 209.898 122.555H205.398V135.656Z" fill="white"/>
<path d="M143.156 209.562C141.906 209.562 140.672 209.461 139.453 209.258C138.25 209.055 137.18 208.836 136.242 208.602C135.305 208.352 134.602 208.172 134.133 208.062L134.93 204.57C135.242 204.633 135.82 204.773 136.664 204.992C137.523 205.211 138.531 205.422 139.688 205.625C140.844 205.812 142.023 205.906 143.227 205.906C145.023 205.906 146.469 205.469 147.562 204.594C148.656 203.703 149.203 202.305 149.203 200.398C149.203 199.07 148.914 197.953 148.336 197.047C147.773 196.141 146.805 195.453 145.43 194.984C144.055 194.516 142.156 194.281 139.734 194.281V190.508C141.391 190.508 142.773 190.422 143.883 190.25C145.008 190.078 145.906 189.797 146.578 189.406C147.234 189 147.703 188.469 147.984 187.812C148.266 187.141 148.406 186.305 148.406 185.305C148.406 183.43 147.836 182.141 146.695 181.438C145.57 180.734 144.203 180.383 142.594 180.383C141.609 180.383 140.594 180.461 139.547 180.617C138.516 180.773 137.562 180.953 136.688 181.156C135.828 181.344 135.164 181.508 134.695 181.648L135.281 178.062C135.562 177.969 136.078 177.828 136.828 177.641C137.578 177.453 138.461 177.281 139.477 177.125C140.492 176.969 141.531 176.891 142.594 176.891C145.734 176.891 148.227 177.531 150.07 178.812C151.914 180.094 152.836 182.109 152.836 184.859C152.836 186.562 152.547 187.891 151.969 188.844C151.391 189.797 150.734 190.57 150 191.164C149.188 191.742 148.25 192.125 147.188 192.312C148.453 192.406 149.578 192.734 150.562 193.297C150.984 193.578 151.398 193.906 151.805 194.281C152.211 194.656 152.57 195.117 152.883 195.664C153.195 196.227 153.445 196.883 153.633 197.633C153.836 198.383 153.938 199.234 153.938 200.188C153.938 202.672 153.445 204.594 152.461 205.953C151.477 207.297 150.164 208.234 148.523 208.766C146.898 209.297 145.109 209.562 143.156 209.562ZM160.008 193.227C160.008 189.805 160.375 186.883 161.109 184.461C161.844 182.023 163.07 180.156 164.789 178.859C166.523 177.562 168.883 176.914 171.867 176.914C174.883 176.914 177.25 177.562 178.969 178.859C180.703 180.156 181.938 182.023 182.672 184.461C183.406 186.883 183.773 189.805 183.773 193.227C183.773 195.789 183.57 198.086 183.164 200.117C182.758 202.148 182.086 203.859 181.148 205.25C180.211 206.641 178.984 207.711 177.469 208.461C175.953 209.195 174.086 209.562 171.867 209.562C169.648 209.562 167.781 209.195 166.266 208.461C164.766 207.711 163.555 206.641 162.633 205.25C161.695 203.859 161.023 202.148 160.617 200.117C160.211 198.086 160.008 195.789 160.008 193.227ZM171.867 206.117C173.414 206.117 174.68 205.812 175.664 205.203C176.648 204.578 177.406 203.703 177.938 202.578C178.484 201.469 178.852 200.125 179.039 198.547C179.227 196.953 179.32 195.172 179.32 193.203C179.32 191.297 179.211 189.547 178.992 187.953C178.789 186.359 178.414 184.992 177.867 183.852C177.305 182.727 176.539 181.844 175.57 181.203C174.602 180.562 173.367 180.242 171.867 180.242C170.367 180.242 169.133 180.562 168.164 181.203C167.211 181.828 166.461 182.703 165.914 183.828C165.352 184.969 164.969 186.336 164.766 187.93C164.562 189.523 164.461 191.281 164.461 193.203C164.461 195.172 164.562 196.953 164.766 198.547C164.984 200.125 165.375 201.469 165.938 202.578C166.484 203.703 167.234 204.578 168.188 205.203C169.156 205.812 170.383 206.117 171.867 206.117ZM190.008 193.227C190.008 189.805 190.375 186.883 191.109 184.461C191.844 182.023 193.07 180.156 194.789 178.859C196.523 177.562 198.883 176.914 201.867 176.914C204.883 176.914 207.25 177.562 208.969 178.859C210.703 180.156 211.938 182.023 212.672 184.461C213.406 186.883 213.773 189.805 213.773 193.227C213.773 195.789 213.57 198.086 213.164 200.117C212.758 202.148 212.086 203.859 211.148 205.25C210.211 206.641 208.984 207.711 207.469 208.461C205.953 209.195 204.086 209.562 201.867 209.562C199.648 209.562 197.781 209.195 196.266 208.461C194.766 207.711 193.555 206.641 192.633 205.25C191.695 203.859 191.023 202.148 190.617 200.117C190.211 198.086 190.008 195.789 190.008 193.227ZM201.867 206.117C203.414 206.117 204.68 205.812 205.664 205.203C206.648 204.578 207.406 203.703 207.938 202.578C208.484 201.469 208.852 200.125 209.039 198.547C209.227 196.953 209.32 195.172 209.32 193.203C209.32 191.297 209.211 189.547 208.992 187.953C208.789 186.359 208.414 184.992 207.867 183.852C207.305 182.727 206.539 181.844 205.57 181.203C204.602 180.562 203.367 180.242 201.867 180.242C200.367 180.242 199.133 180.562 198.164 181.203C197.211 181.828 196.461 182.703 195.914 183.828C195.352 184.969 194.969 186.336 194.766 187.93C194.562 189.523 194.461 191.281 194.461 193.203C194.461 195.172 194.562 196.953 194.766 198.547C194.984 200.125 195.375 201.469 195.938 202.578C196.484 203.703 197.234 204.578 198.188 205.203C199.156 205.812 200.383 206.117 201.867 206.117ZM226.992 205.414V198.336H220.805V195.148H226.992V188.023H230.227V195.148H236.414V198.336H230.227V205.414H226.992Z" fill="white"/>
</svg>
