<svg width="102" height="59" viewBox="0 0 102 59" fill="none" xmlns="http://www.w3.org/2000/svg">
<path d="M47.3718 6.10352e-05H54.6282L59.8309 0.541917L63.3906 1.21924L67.2242 2.16748L72.153 3.79305L76.2604 5.55408L79.6832 7.31511L82.4215 8.94068L84.6121 10.4308L86.6658 11.9209L88.5826 13.411L89.9517 14.6302L91.047 15.5784L92.0054 16.5267L93.1007 17.4749L94.0591 18.5586L95.0174 19.5069L96.2497 20.997L97.6188 22.6225L99.5356 25.1964L101.315 27.9056L102 28.9893L101.863 29.5312L99.9463 32.5114L98.1664 34.9498L96.3866 37.1172L94.8805 38.8782L92.8268 41.0456L91.3208 42.5357L90.2255 43.484L88.1718 45.245L86.3919 46.5997L83.9275 48.3607L80.6416 50.3926L77.6295 52.0182L74.4805 53.5083L70.647 54.9984L66.8134 56.2176L62.1584 57.3013L58.7356 57.8432L54.7651 58.2495L52.0268 58.385H49.9732L45.7289 58.1141L41.4846 57.5722L37.2403 56.7594L33.8174 55.8112L30.9423 54.8629L27.2456 53.3728L23.8228 51.7473L20.9477 50.1217L18.757 48.7671L16.5664 47.277L14.7866 45.9223L13.2805 44.7032L11.9114 43.484L10.8161 42.5357L9.03624 40.9102L7.39329 39.1491L6.02416 37.659L4.51812 35.7625L3.14899 34.0015L0.958389 30.7504L0 29.2603L0.273825 28.5829L3.01208 24.519L4.2443 22.8935L6.02416 20.726L7.39329 19.2359L8.35168 18.1522L11.2268 15.3075L12.3221 14.3592L14.2389 12.7337L16.4295 11.1081L18.757 9.48254L21.6322 7.7215L25.1919 5.82501L28.4779 4.33491L32.1745 2.98027L35.7342 1.89656L39.157 1.08377L43.2644 0.406453L47.3718 6.10352e-05Z" fill="#7A008D"/>
<path d="M48.8778 6.36689H53.1221L55.8604 6.77328L58.4617 7.4506L61.0631 8.53431L63.1168 9.61802L65.4443 11.2436L67.2242 12.8692L68.4564 14.0883L70.2362 16.3912L71.6054 18.6941L72.0161 19.5069L72.2899 19.7778L77.9034 20.8615L82.0107 21.9452L85.1597 23.029L87.2134 23.9772L89.404 25.1964L91.1839 26.8219L91.8685 28.0411L92.0054 28.583V29.8021L91.4577 31.0213L90.6362 32.105L88.9933 33.3242L86.8027 34.5434L84.0644 35.6271L80.094 36.8463L75.9866 37.7945L71.1946 38.6073L65.7181 39.2846L60.7893 39.691L54.902 39.9619H46.8242L40.9369 39.691L36.0081 39.2846L31.4899 38.7428L26.698 37.93L21.3584 36.7108L16.4295 35.0852L14.102 34.0015L12.0483 32.6469L10.8161 31.4277L9.99463 29.8021V28.583L10.5423 27.2283L11.9114 25.7382L13.2805 24.79L16.1557 23.2999L19.5785 22.0807L23.549 20.997L29.7101 19.7778L30.1208 19.3714L31.353 17.0685L32.7221 15.172L34.3651 13.2755L35.7342 11.9209L38.0617 10.1599L40.1154 8.9407L42.443 7.85699L44.9074 7.04421L47.6456 6.50235L48.8778 6.36689Z" fill="white"/>
<path d="M70.6469 40.2328H71.1946L70.9208 40.7747L69.5516 42.8067L68.3194 44.2968L65.9919 46.5997L64.212 47.9543L62.1584 49.1735L59.557 50.3926L57.0926 51.2054L54.3543 51.7473L53.3959 51.8827H48.4671L45.3181 51.3409L42.0322 50.2572L39.2939 48.9025L37.651 47.8188L35.7342 46.3287L33.2698 43.8904L32.5852 42.9421V42.8067L35.4604 42.9421H46.8241L53.6698 42.5357L60.2416 41.8584L66.9503 40.9102L70.6469 40.2328Z" fill="#FBF7F1"/>
<path d="M50.3839 19.9132H51.89L53.8067 20.3196L55.4497 20.9969L56.9557 22.0806L57.9141 22.8934L59.1463 24.6545L59.694 25.7382L60.1047 26.9573L60.2416 27.7701V30.6149L59.8309 32.2404L59.2833 33.0532L58.5987 33.3242L56.4081 33.4596H45.0443L43.1276 33.3242L42.5799 33.0532L42.0322 31.6986L41.7584 30.4794V28.0411L42.0322 26.551L42.8537 24.6545L43.949 23.1644L45.3182 21.8097L47.2349 20.726L48.741 20.1842L50.3839 19.9132Z" fill="#7A008D"/>
<path d="M72.7007 21.2679L73.9329 21.5388L76.3973 22.4871L78.3141 23.5708L79.4094 24.519L79.9571 25.6028V26.6865L79.2725 27.7702L78.1772 28.7184L75.5759 30.0731L74.4805 30.4795H73.9329V27.3638L73.5222 24.519L72.7007 21.5388V21.2679Z" fill="#7A008D"/>
<path d="M28.8886 21.2679H29.2993L29.0255 22.4871L28.341 25.4673L28.0671 27.9056L27.9302 30.6149L25.055 29.3958L23.549 28.4475L22.4537 27.3638L22.043 26.551L22.1799 25.3318L22.7275 24.3836L24.3705 23.1644L26.5611 22.0807L28.8886 21.2679Z" fill="#7A008D"/>
</svg>
