<svg width="249" height="253" viewBox="0 0 249 253" fill="none" xmlns="http://www.w3.org/2000/svg">
<rect x="0.5" y="0.5" width="248" height="252" rx="5.5" fill="#110014" stroke="white"/>
<path d="M34.3216 42.3318L40.9994 49.0133L38.3294 51.6852L41.0032 54.359L38.3313 57.0308L33.6546 52.3541L28.309 57.6997L25.6371 55.0279L30.9827 49.6804L26.306 45.0055L28.9779 42.3337L31.6497 45.0036L34.3197 42.3318H34.3216ZM26.6688 22.6688L33.3693 22.6744L55.6985 45.0055L58.3722 42.3337L61.0441 45.0055L56.3693 49.6822L61.713 55.0279L59.0411 57.6997L53.6955 52.3541L49.0188 57.0308L46.3469 54.359L49.0188 51.6852L26.6745 29.3409L26.6688 22.6688ZM53.9865 22.6688L60.6813 22.6744L60.6851 29.3314L53.0266 36.988L46.345 30.3083L53.9865 22.6688Z" fill="#B062FF"/>
<path d="M50.3359 73V42.6953H40.6797V39.3203H64.4453L63.8828 42.6953H54.7188V73H50.3359ZM66.9062 56.0781C66.9062 50.2031 68.0625 45.8359 70.375 42.9766C72.6875 40.1172 76.0469 38.6875 80.4531 38.6875C84.8906 38.6875 88.2656 40.1172 90.5781 42.9766C92.9062 45.8359 94.0703 50.2031 94.0703 56.0781C94.0703 62.0156 92.9062 66.4141 90.5781 69.2734C88.2656 72.1328 84.8906 73.5625 80.4531 73.5625C76.0469 73.5625 72.6875 72.1328 70.375 69.2734C68.0625 66.3984 66.9062 62 66.9062 56.0781ZM71.3828 56.0781C71.3828 58.2812 71.5469 60.2422 71.875 61.9609C72.2188 63.6797 72.7578 65.1406 73.4922 66.3438C74.2266 67.5312 75.1641 68.4453 76.3047 69.0859C77.4453 69.7109 78.8281 70.0234 80.4531 70.0234C82.0938 70.0234 83.4844 69.7109 84.625 69.0859C85.7812 68.4453 86.7266 67.5312 87.4609 66.3438C88.1953 65.1406 88.7266 63.6797 89.0547 61.9609C89.3984 60.2422 89.5703 58.2812 89.5703 56.0781C89.5703 53.8906 89.3984 51.9375 89.0547 50.2188C88.7266 48.5 88.1953 47.0469 87.4609 45.8594C86.7266 44.6719 85.7812 43.7656 84.625 43.1406C83.4844 42.5156 82.0938 42.2031 80.4531 42.2031C78.8438 42.2031 77.4688 42.5156 76.3281 43.1406C75.1875 43.7656 74.25 44.6719 73.5156 45.8594C72.7969 47.0469 72.2578 48.5 71.8984 50.2188C71.5547 51.9375 71.3828 53.8906 71.3828 56.0781ZM123.695 49.6094C123.695 51.5156 123.414 53.1016 122.852 54.3672C122.289 55.6172 121.422 56.6328 120.25 57.4141C119.062 58.1953 117.555 58.7578 115.727 59.1016C113.898 59.4453 111.719 59.6172 109.188 59.6172H106.961C106.727 59.6172 106.484 59.6172 106.234 59.6172C106 59.6172 105.75 59.6094 105.484 59.5938V73H101.148V39.3203H108.391C111.422 39.3203 113.922 39.4922 115.891 39.8359C117.859 40.1641 119.422 40.7266 120.578 41.5234C121.734 42.3203 122.539 43.375 122.992 44.6875C123.461 45.9844 123.695 47.625 123.695 49.6094ZM109.562 56.1953C113.266 56.1953 115.82 55.6875 117.227 54.6719C117.961 54.1406 118.469 53.4688 118.75 52.6562C119.031 51.8281 119.172 50.7969 119.172 49.5625C119.172 48.0938 119.031 46.9141 118.75 46.0234C118.469 45.1328 117.953 44.4453 117.203 43.9609C116.453 43.4609 115.414 43.125 114.086 42.9531C112.758 42.7812 111.039 42.6953 108.93 42.6953H105.484V56.1953H109.562ZM90.7891 112.609C90.7891 114.516 90.5078 116.102 89.9453 117.367C89.3828 118.617 88.5156 119.633 87.3438 120.414C86.1562 121.195 84.6484 121.758 82.8203 122.102C80.9922 122.445 78.8125 122.617 76.2812 122.617H74.0547C73.8203 122.617 73.5781 122.617 73.3281 122.617C73.0938 122.617 72.8438 122.609 72.5781 122.594V136H68.2422V102.32H75.4844C78.5156 102.32 81.0156 102.492 82.9844 102.836C84.9531 103.164 86.5156 103.727 87.6719 104.523C88.8281 105.32 89.6328 106.375 90.0859 107.688C90.5547 108.984 90.7891 110.625 90.7891 112.609ZM76.6562 119.195C80.3594 119.195 82.9141 118.688 84.3203 117.672C85.0547 117.141 85.5625 116.469 85.8438 115.656C86.125 114.828 86.2656 113.797 86.2656 112.562C86.2656 111.094 86.125 109.914 85.8438 109.023C85.5625 108.133 85.0469 107.445 84.2969 106.961C83.5469 106.461 82.5078 106.125 81.1797 105.953C79.8516 105.781 78.1328 105.695 76.0234 105.695H72.5781V119.195H76.6562ZM103.398 136L93.6953 102.32H98.6406L104.828 126.133L106.656 133.797L108.391 126.133L114.414 102.32H119.43L109.773 136H103.398ZM147.32 112.609C147.32 114.516 147.039 116.102 146.477 117.367C145.914 118.617 145.047 119.633 143.875 120.414C142.688 121.195 141.18 121.758 139.352 122.102C137.523 122.445 135.344 122.617 132.812 122.617H130.586C130.352 122.617 130.109 122.617 129.859 122.617C129.625 122.617 129.375 122.609 129.109 122.594V136H124.773V102.32H132.016C135.047 102.32 137.547 102.492 139.516 102.836C141.484 103.164 143.047 103.727 144.203 104.523C145.359 105.32 146.164 106.375 146.617 107.688C147.086 108.984 147.32 110.625 147.32 112.609ZM133.188 119.195C136.891 119.195 139.445 118.688 140.852 117.672C141.586 117.141 142.094 116.469 142.375 115.656C142.656 114.828 142.797 113.797 142.797 112.562C142.797 111.094 142.656 109.914 142.375 109.023C142.094 108.133 141.578 107.445 140.828 106.961C140.078 106.461 139.039 106.125 137.711 105.953C136.383 105.781 134.664 105.695 132.555 105.695H129.109V119.195H133.188ZM80.1719 199L81.6719 165.32H88.0938L95.6172 190.094L97.2109 195.508L98.6641 190.094L106.211 165.32H112.633L113.875 199H109.586L108.859 175.844L108.836 168.859L106.844 176.945L99.9297 198.25H94.375L87.4609 176.945L85.4922 168.859L85.4219 175.867L84.4844 199H80.1719ZM120.859 182.078C120.859 176.203 122.016 171.836 124.328 168.977C126.641 166.117 130 164.688 134.406 164.688C138.844 164.688 142.219 166.117 144.531 168.977C146.859 171.836 148.023 176.203 148.023 182.078C148.023 188.016 146.859 192.414 144.531 195.273C142.219 198.133 138.844 199.562 134.406 199.562C130 199.562 126.641 198.133 124.328 195.273C122.016 192.398 120.859 188 120.859 182.078ZM125.336 182.078C125.336 184.281 125.5 186.242 125.828 187.961C126.172 189.68 126.711 191.141 127.445 192.344C128.18 193.531 129.117 194.445 130.258 195.086C131.398 195.711 132.781 196.023 134.406 196.023C136.047 196.023 137.438 195.711 138.578 195.086C139.734 194.445 140.68 193.531 141.414 192.344C142.148 191.141 142.68 189.68 143.008 187.961C143.352 186.242 143.523 184.281 143.523 182.078C143.523 179.891 143.352 177.938 143.008 176.219C142.68 174.5 142.148 173.047 141.414 171.859C140.68 170.672 139.734 169.766 138.578 169.141C137.438 168.516 136.047 168.203 134.406 168.203C132.797 168.203 131.422 168.516 130.281 169.141C129.141 169.766 128.203 170.672 127.469 171.859C126.75 173.047 126.211 174.5 125.852 176.219C125.508 177.938 125.336 179.891 125.336 182.078ZM155.102 199V165.32H164.758C166.07 165.32 167.359 165.391 168.625 165.531C169.906 165.656 171.125 165.922 172.281 166.328C173.469 166.766 174.539 167.336 175.492 168.039C176.461 168.758 177.305 169.711 178.023 170.898C178.742 172.086 179.305 173.531 179.711 175.234C180.117 176.984 180.32 179.062 180.32 181.469C180.32 184.141 180.102 186.555 179.664 188.711C179.242 190.867 178.5 192.711 177.438 194.242C176.375 195.773 174.898 196.953 173.008 197.781C171.133 198.594 168.734 199 165.812 199H155.102ZM164.336 195.625C168.789 195.625 171.859 194.625 173.547 192.625C174.422 191.578 175.031 190.164 175.375 188.383C175.734 186.602 175.914 184.359 175.914 181.656C175.914 179.453 175.758 177.555 175.445 175.961C175.148 174.367 174.625 173.031 173.875 171.953C173.109 170.891 172.086 170.086 170.805 169.539C169.523 168.992 167.914 168.719 165.977 168.719H159.602V195.625H164.336ZM195.648 199.562C193.336 199.562 191.453 199.367 190 198.977C188.547 198.57 187.383 198.148 186.508 197.711L185.898 194.008C186.914 194.508 188.195 194.969 189.742 195.391C191.305 195.812 193.133 196.023 195.227 196.023C197.617 196.023 199.477 195.617 200.805 194.805C202.133 193.992 202.797 192.422 202.797 190.094C202.797 188.75 202.562 187.68 202.094 186.883C201.625 186.086 200.797 185.398 199.609 184.82C198.438 184.227 196.781 183.594 194.641 182.922C192.422 182.266 190.633 181.547 189.273 180.766C187.914 179.969 186.922 178.984 186.297 177.812C185.688 176.625 185.391 175.117 185.406 173.289C185.469 171.133 186.008 169.43 187.023 168.18C188.055 166.914 189.422 166.016 191.125 165.484C192.844 164.938 194.766 164.664 196.891 164.664C198.281 164.664 199.68 164.789 201.086 165.039C202.492 165.273 203.828 165.594 205.094 166L205.586 169.844C204.695 169.484 203.438 169.125 201.812 168.766C200.188 168.406 198.531 168.227 196.844 168.227C194.688 168.227 192.945 168.586 191.617 169.305C190.289 170.008 189.625 171.383 189.625 173.43C189.656 174.414 189.875 175.25 190.281 175.938C190.703 176.609 191.43 177.211 192.461 177.742C193.508 178.273 194.984 178.836 196.891 179.43C198.641 180.008 200.156 180.578 201.438 181.141C202.734 181.688 203.805 182.336 204.648 183.086C205.492 183.82 206.117 184.758 206.523 185.898C206.945 187.023 207.156 188.453 207.156 190.188C207.156 193.062 206.258 195.344 204.461 197.031C202.664 198.719 199.727 199.562 195.648 199.562Z" fill="white"/>
</svg>
