<svg width="36" height="36" viewBox="0 0 36 36" fill="none" xmlns="http://www.w3.org/2000/svg">
<path d="M18 0C8.05781 0 0 8.05781 0 18C0 27.9422 8.05781 36 18 36C27.9422 36 36 27.9422 36 18C36 8.05781 27.9422 0 18 0ZM29.2359 29.2289C27.7734 30.6914 26.0789 31.8375 24.1875 32.632C22.2328 33.4617 20.1516 33.8766 18 33.8766C15.8555 33.8766 13.7742 33.4547 11.8125 32.632C9.92109 31.8305 8.21953 30.6844 6.76406 29.2289C5.30156 27.7664 4.15547 26.0719 3.36094 24.1805C2.53125 22.2258 2.10938 20.1445 2.10938 18C2.10938 15.8555 2.53125 13.7742 3.35391 11.8125C4.15547 9.92109 5.30156 8.21953 6.75703 6.76406C8.22656 5.30156 9.92109 4.15547 11.8125 3.35391C13.7742 2.53125 15.8555 2.10938 18 2.10938C20.1445 2.10938 22.2258 2.53125 24.1875 3.35391C26.0789 4.15547 27.7805 5.30156 29.2359 6.75703C30.6984 8.21953 31.8445 9.91406 32.6391 11.8055C33.4688 13.7602 33.8836 15.8414 33.8836 17.993C33.8836 20.1375 33.4617 22.2187 32.6391 24.1805C31.8375 26.0719 30.6914 27.7734 29.2359 29.2289Z" fill="white"/>
<path d="M25.8398 14.4985C25.9031 13.0852 25.7133 11.7141 25.2351 10.3782C25.1719 10.2094 25.0945 10.1461 24.9187 10.1954C24.525 10.3149 24.1172 10.4063 23.7304 10.5469C22.6617 10.9336 21.6844 11.4961 20.7351 12.1079C20.6367 12.1711 20.489 12.2133 20.3695 12.1922C18.8156 11.918 17.2547 11.9321 15.6937 12.1711C15.539 12.1922 15.3422 12.1571 15.2156 12.0797C14.1117 11.3625 12.9867 10.6594 11.7 10.3219C10.6383 10.0407 10.8562 9.98442 10.5539 10.9477C10.1953 12.1008 10.0547 13.2961 10.132 14.5055C10.139 14.5899 10.0758 14.6954 10.0195 14.7727C9.55545 15.3282 9.19685 15.9399 8.97888 16.629C8.55701 17.9649 8.64138 19.3149 8.90857 20.6579C9.43592 23.2946 11.2148 25.1438 13.8445 25.6008C15.2015 25.8399 16.6008 25.861 17.8734 25.9665C19.2937 25.861 20.6086 25.854 21.8883 25.65C24.1242 25.2915 25.8117 24.1032 26.6554 21.9446C26.9508 21.1922 27.1125 20.3696 27.2109 19.568C27.4289 17.7961 27.1265 16.1368 25.9172 14.7375C25.875 14.6813 25.8398 14.5829 25.8398 14.4985ZM24.6867 22.0852C24.4547 23.1821 23.8148 23.9344 22.7461 24.3211C21.7125 24.7008 20.6437 24.8555 19.5539 24.9258C19.0265 24.961 18.4992 24.9329 17.9719 24.9329C16.5515 24.961 15.1312 24.9047 13.7601 24.4969C12.0375 23.9836 11.264 22.9571 11.2148 21.1571C11.1937 20.5172 11.264 19.8985 11.5664 19.3219C12.164 18.1618 13.1976 17.754 14.4211 17.7329C15.089 17.7258 15.764 17.7821 16.439 17.8454C17.8523 17.9719 19.2515 17.8383 20.6578 17.761C21.2765 17.7258 21.9094 17.7118 22.514 17.8172C23.8148 18.0422 24.7992 19.336 24.8203 20.7915C24.8203 21.2204 24.7711 21.6633 24.6867 22.0852Z" fill="white"/>
<path d="M13.9992 19.6735C13.6125 20.0743 13.4789 20.5805 13.4578 21.0305C13.4578 21.7055 13.6546 22.2469 13.9992 22.5985C14.4773 23.0836 15.1312 23.0696 15.5882 22.5774C16.2773 21.8321 16.2703 20.4329 15.5882 19.6946C15.1312 19.1954 14.4632 19.1883 13.9992 19.6735Z" fill="white"/>
<path d="M20.4749 19.6172C19.6874 20.3414 19.6874 21.9375 20.4749 22.6547C20.9319 23.0696 21.5507 23.0485 21.9796 22.6055C22.3733 22.1977 22.514 21.6844 22.528 21.1289C22.514 20.5735 22.3733 20.0672 21.9726 19.6594C21.5437 19.2164 20.9249 19.2024 20.4749 19.6172Z" fill="white"/>
</svg>
