<svg width="35" height="35" viewBox="0 0 35 35" fill="none" xmlns="http://www.w3.org/2000/svg">
<path d="M17.5 0C7.83398 0 0 7.83398 0 17.5C0 27.166 7.83398 35 17.5 35C27.166 35 35 27.166 35 17.5C35 7.83398 27.166 0 17.5 0ZM28.4238 28.417C27.002 29.8389 25.3545 30.9531 23.5156 31.7256C21.6152 32.5322 19.5918 32.9355 17.5 32.9355C15.415 32.9355 13.3916 32.5254 11.4844 31.7256C9.64551 30.9463 7.99121 29.832 6.57617 28.417C5.1543 26.9951 4.04004 25.3477 3.26758 23.5088C2.46094 21.6084 2.05078 19.585 2.05078 17.5C2.05078 15.415 2.46094 13.3916 3.26074 11.4844C4.04004 9.64551 5.1543 7.99121 6.56934 6.57617C7.99805 5.1543 9.64551 4.04004 11.4844 3.26074C13.3916 2.46094 15.415 2.05078 17.5 2.05078C19.585 2.05078 21.6084 2.46094 23.5156 3.26074C25.3545 4.04004 27.0088 5.1543 28.4238 6.56934C29.8457 7.99121 30.96 9.63867 31.7324 11.4775C32.5391 13.3779 32.9424 15.4014 32.9424 17.4932C32.9424 19.5781 32.5322 21.6016 31.7324 23.5088C30.9531 25.3477 29.8389 27.002 28.4238 28.417Z" fill="white"/>
<path d="M22.873 8.75H12.1406C10.2744 8.75 8.75684 10.2676 8.75684 12.1338V15.709V22.873C8.75684 24.7393 10.2744 26.2568 12.1406 26.2568H22.873C24.7393 26.2568 26.2568 24.7393 26.2568 22.873V15.7022V12.127C26.25 10.2676 24.7324 8.75 22.873 8.75ZM23.8437 10.7666H24.2334V11.1494V13.7334L21.2734 13.7402L21.2666 10.7734L23.8437 10.7666ZM15.0049 15.7022C15.5654 14.9297 16.4746 14.417 17.5 14.417C18.5254 14.417 19.4346 14.9229 19.9951 15.7022C20.3643 16.208 20.5762 16.8301 20.5762 17.5C20.5762 19.1953 19.1953 20.583 17.4932 20.583C15.791 20.583 14.4238 19.1953 14.4238 17.5C14.4238 16.8301 14.6426 16.208 15.0049 15.7022ZM24.5479 22.8662C24.5479 23.7891 23.7959 24.541 22.873 24.541H12.1406C11.2178 24.541 10.4658 23.7891 10.4658 22.8662V15.7022H13.0771C12.8516 16.2559 12.7217 16.8643 12.7217 17.5C12.7217 20.1387 14.8682 22.2852 17.5068 22.2852C20.1455 22.2852 22.292 20.1387 22.292 17.5C22.292 16.8643 22.1621 16.2559 21.9365 15.7022H24.5479V22.8662Z" fill="white"/>
</svg>
