<svg width="36" height="36" viewBox="0 0 36 36" fill="none" xmlns="http://www.w3.org/2000/svg">
<path d="M18 0C8.05781 0 0 8.05781 0 18C0 27.9422 8.05781 36 18 36C27.9422 36 36 27.9422 36 18C36 8.05781 27.9422 0 18 0ZM29.2359 29.2289C27.7734 30.6914 26.0789 31.8375 24.1875 32.632C22.2328 33.4617 20.1516 33.8766 18 33.8766C15.8555 33.8766 13.7742 33.4547 11.8125 32.632C9.92109 31.8305 8.21953 30.6844 6.76406 29.2289C5.30156 27.7664 4.15547 26.0719 3.36094 24.1805C2.53125 22.2258 2.10938 20.1445 2.10938 18C2.10938 15.8555 2.53125 13.7742 3.35391 11.8125C4.15547 9.92109 5.30156 8.21953 6.75703 6.76406C8.22656 5.30156 9.92109 4.15547 11.8125 3.35391C13.7742 2.53125 15.8555 2.10938 18 2.10938C20.1445 2.10938 22.2258 2.53125 24.1875 3.35391C26.0789 4.15547 27.7805 5.30156 29.2359 6.75703C30.6984 8.21953 31.8445 9.91406 32.6391 11.8055C33.4688 13.7602 33.8836 15.8414 33.8836 17.993C33.8836 20.1375 33.4617 22.2187 32.6391 24.1805C31.8375 26.0719 30.6914 27.7734 29.2359 29.2289Z" fill="white"/>
<path d="M23.8992 11.6859H12.1008C12.1008 11.6859 9 11.6859 9 14.7867V21.2203C9 21.2203 9 24.3211 12.1008 24.3211H23.8992C23.8992 24.3211 27 24.3211 27 21.2203V14.7867C27 14.7867 27 11.6859 23.8992 11.6859ZM15.6023 21.4664V14.5406L21.4945 18.007L15.6023 21.4664Z" fill="white"/>
</svg>
